<?xml version="1.0" encoding="utf-8"?>
<!-- Generator: Adobe Illustrator 24.3.0, SVG Export Plug-In . SVG Version: 6.00 Build 0)  -->
<svg version="1.1" id="Layer_1" xmlns="http://www.w3.org/2000/svg" xmlns:xlink="http://www.w3.org/1999/xlink" x="0px" y="0px"
	 viewBox="0 0 157.2 179.2" style="enable-background:new 0 0 157.2 179.2;" xml:space="preserve">
<style type="text/css">
	.st0{fill:#3D5588;}
</style>
<path class="st0" d="M150.8,102.5c-3.9,0-7.3,3.4-7.3,6.7c0,28.6-22.4,52.1-51,55.4V76.7h20.7c3.9,0,7.3-3.4,6.7-7.3
	c-0.6-3.9-3.4-6.7-7.3-6.7H92v-14c10.6-2.8,18.5-12.3,18.5-24.1c0-6.7-2.8-12.9-7.3-17.4C98.2,2.2,92,0,84.7,0
	C70.7,0,59,11.2,59,25.2c0,6.7,2.8,12.9,7.3,17.4c3.4,3.4,7.3,5,11.2,6.7v14H56.7c-3.9,0-7.3,3.4-6.7,7.3s3.4,6.7,7.3,6.7H78v87.9
	c-13.4-1.7-25.2-7.3-34.7-16.8C32.6,137.8,27,124.3,27,109.8c0-3.9-3.4-7.3-6.7-7.3c-3.9,0-6.7,3.4-7.3,6.7
	c0,18.5,7.3,35.3,20.2,48.7c13.4,13.4,31.9,21.3,51.5,21.3c39.8,0,72.2-31.4,72.2-70C158.1,105.3,154.7,102.5,150.8,102.5
	L150.8,102.5z M74.1,25.2c0-6.2,5-11.2,11.8-11.2c3.4,0,6.2,1.1,8.4,3.4c2.2,2.2,3.4,4.5,3.4,7.3c0,6.2-5,11.2-11.8,11.2
	c-3.4,0-6.2-1.1-8.4-3.4C75.2,30.2,74.1,28,74.1,25.2z"/>
</svg>
