<?xml version="1.0" encoding="utf-8"?>
<!-- Generator: Adobe Illustrator 24.3.0, SVG Export Plug-In . SVG Version: 6.00 Build 0)  -->
<svg version="1.1" id="Layer_1" xmlns="http://www.w3.org/2000/svg" xmlns:xlink="http://www.w3.org/1999/xlink" x="0px" y="0px"
	 viewBox="0 0 554.3 579.4" style="enable-background:new 0 0 554.3 579.4;" xml:space="preserve">
<style type="text/css">
	.st0{fill:#FFFFFF;}
</style>
<g>
	<path class="st0" d="M363.1,329.2h30.7v29.2h-30.7V329.2z"/>
	<path class="st0" d="M263.5,282.7H290v26.6h-26.5V282.7z"/>
	<path class="st0" d="M156,267.2h-8.9v42.1h26.6v-26.6h-9.2c-3.3,0-6.4-1.7-8.3-4.4s-2.2-6.2-1-9.3L156,267.2z"/>
	<path class="st0" d="M193.6,282.7h50v26.6h-50V282.7z"/>
	<path class="st0" d="M160.7,329.2h30.7v29.2h-30.7L160.7,329.2z"/>
	<path class="st0" d="M263.5,154.6H290v15.2h-26.5V154.6z"/>
	<path class="st0" d="M309.9,282.7h49.8v26.6h-49.8V282.7z"/>
	<path class="st0" d="M446.1,205.2h-73.5l16.8,42H474L446.1,205.2z"/>
	<path class="st0" d="M261.9,329.2h30.7v29.2h-30.7V329.2z"/>
	<path class="st0" d="M413.7,329.2h21.4v29.2h-21.4V329.2z"/>
	<path class="st0" d="M345.1,189.8H208.5L180,261l0,0.1l-0.7,1.6h195L345.1,189.8z"/>
	<path class="st0" d="M312.5,329.2h30.7v29.2h-30.7V329.2z"/>
	<path class="st0" d="M211.3,329.2H242v29.2h-30.7V329.2z"/>
	<path class="st0" d="M180.8,205.2h-73.5l-28.1,42h84.7L180.8,205.2z"/>
	<path class="st0" d="M118.4,329.2h22.5v29.2h-22.5V329.2z"/>
	<path class="st0" d="M147.1,146.9h26.6v38.4h-26.6V146.9z"/>
	<path class="st0" d="M406.2,267.2h-8.9l0.7,1.9c1.2,3.1,0.8,6.5-1.1,9.2c-1.9,2.7-4.9,4.4-8.2,4.4h-9.2v26.6h26.6L406.2,267.2
		L406.2,267.2z"/>
	<path class="st0" d="M523.7,529.1l-6.9-0.2c-10.2-0.3-20.7-0.5-29.8-3.1c-3.5-1-6.8-2.5-10.1-4.1c-6.5-3-13.9-6.4-22.7-6.7
		c-8.7-0.4-16.1,3.5-22.5,7c-3.2,1.8-6.3,3.5-9,4.2c-18.6,5-38.6,4.5-56.3-1.5c-2.4-0.8-4.7-1.8-6.9-2.8c-7.3-3.1-15.5-6.7-25.9-5
		c-7.7,1.2-14.5,4-21.1,6.6c-6,2.4-11.6,4.7-17.3,5.6c-15.5,2.4-30.3,1.1-42.7-3.9c-2.3-1-4.5-2.2-6.7-3.3
		c-6.1-3.3-13.6-7.2-23.4-6.7c-7.6,0.6-14.2,3.5-20.1,6c-3.6,1.6-7.3,3.2-11.1,4c-22.5,4.8-47.7,2.1-71.5-7.7
		c-3.2-1.3-7.5-3.1-12.8-2.6c-8.7,0.8-15.9,4.6-22.3,8c-4.5,2.4-8.7,4.6-12.9,5.5c-11.9,2.4-24.8,2.2-38.5-0.7
		c-5.3-1.1-10.7,2.3-11.8,7.7c-1.1,5.4,2.3,10.7,7.7,11.8c16.3,3.4,32,3.7,46.6,0.7c6.9-1.4,12.9-4.6,18.2-7.4
		c5.4-2.8,10-5.3,14.7-5.7c0.6,0,2.4,0.7,3.9,1.4c26.9,11.2,56.3,14.3,82.7,8.7c5.1-1.1,10-3.1,14.9-5.2c4.9-2.1,9.5-4.1,13.7-4.4
		c3.9,0,7.1,1.5,12.3,4.3c2.8,1.5,5.7,3.1,8.8,4.3c10.7,4.3,22.7,6.5,35.3,6.5c5.9,0,11.9-0.5,18-1.5c7.9-1.3,14.9-4.1,21.6-6.8
		c5.9-2.4,11.4-4.6,16.8-5.4c4.6-0.7,8.7,0.9,14.9,3.6c2.8,1.2,5.6,2.4,8.5,3.4c21.4,7.2,45.5,7.8,67.8,1.8c5-1.3,9.5-3.8,13.4-5.9
		c4.5-2.4,8.7-4.7,12.1-4.6c4.8,0.2,9.6,2.4,15.2,5c4.2,1.9,8.5,3.9,13,5.1c11.6,3.3,23.3,3.6,34.7,3.9l6.6,0.2c0.1,0,0.2,0,0.4,0
		c5.3,0,9.8-4.2,9.9-9.6C533.5,533.9,529.2,529.3,523.7,529.1L523.7,529.1z"/>
	<path class="st0" d="M207.8,104.8l-10-19.8H123l-21,42h97.5L207.8,104.8z"/>
	<path class="st0" d="M243.6,169.8v-15.2h-40.1c-3.3,0-6.3-1.6-8.2-4.3c-0.7-1.1-1-2.3-1.3-3.5h-0.4v27.9c1.8-2.9,4.7-4.9,8.2-4.9
		L243.6,169.8z"/>
	<path class="st0" d="M379.6,146.9h26.6v38.4h-26.6V146.9z"/>
	<path class="st0" d="M451.3,127l-21-42h-74.8l-9.9,20.2l8.2,21.9L451.3,127z"/>
	<path class="st0" d="M313.9,77.2H291l0-28.5l35.4-13.2L266.1,9.7v67.5h-26.7l-11.2,29.9c-0.1,0.2-0.2,0.4-0.2,0.6l-10.1,27h117.6
		L313.9,77.2z"/>
	<path class="st0" d="M359.7,174.5v-27.6h-0.4c-0.3,1.2-0.6,2.4-1.3,3.5c-1.9,2.7-4.9,4.3-8.2,4.3h-39.9v15.2h41.8
		C355.1,169.8,357.9,171.8,359.7,174.5L359.7,174.5z"/>
	<path class="st0" d="M70.4,506.2c6.9-1.4,12.8-4.5,18-7.3c5.3-2.8,9.8-5.2,14.4-5.6c0.6,0,2.3,0.7,3.8,1.4
		c26.5,11,55.5,14.1,81.6,8.5c5.4-1.1,10.1-3.2,14.7-5.2c4.8-2.1,9.3-4,13.4-4.4c3.6,0.1,7,1.4,12.1,4.2c2.8,1.6,5.7,3.1,8.7,4.3
		c10.6,4.3,22.4,6.4,34.8,6.4c5.8,0,11.8-0.5,17.8-1.4c7.8-1.2,14.7-4,21.4-6.7c5.8-2.3,11.2-4.5,16.5-5.3c4.5-0.8,8.5,0.9,14.7,3.6
		c2.7,1.2,5.4,2.3,8.3,3.3c21.1,7.1,44.9,7.7,66.9,1.8c4.9-1.3,9.4-3.7,13.2-5.9c4.4-2.4,8.8-4.6,11.8-4.5c4.7,0.2,9.4,2.4,14.9,4.9
		c4.2,1.9,8.4,3.9,12.8,5.1c11.5,3.3,23.1,3.5,34.4,3.8l6.4,0.2c5,1.2,10.1-4.1,10.3-9.6c0.2-5.5-4.1-10.1-9.6-10.3l-6.7-0.2
		c-10-0.2-20.4-0.5-29.4-3c-1.8-0.5-3.4-1.3-5.1-2.1c6.8-38.1,27.9-81.4,40.1-103.8h-65.4c-0.1,0-0.2,0.1-0.4,0.1s-0.2-0.1-0.4-0.1
		H404c-0.1,0-0.2,0.1-0.4,0.1s-0.2-0.1-0.4-0.1h-49.9c-0.1,0-0.2,0.1-0.4,0.1s-0.2-0.1-0.4-0.1h-49.9c-0.1,0-0.2,0.1-0.4,0.1
		s-0.2-0.1-0.4-0.1h-49.9c-0.1,0-0.2,0.1-0.4,0.1s-0.2-0.1-0.4-0.1l-49.9,0c-0.1,0-0.2,0.1-0.4,0.1s-0.2-0.1-0.4-0.1h-49.9
		c-0.1,0-0.2,0.1-0.4,0.1s-0.2-0.1-0.4-0.1h-41.7c-0.1,0-0.2,0.1-0.4,0.1s-0.2-0.1-0.4-0.1H39.2c5.2,19.6,19.2,60.4,48.7,98.6
		c-3.1,1.3-6.1,2.8-8.9,4.3c-4.4,2.3-8.6,4.5-12.7,5.4C54.8,489,42,488.8,28.6,486c-5.4-1.1-10.7,2.3-11.8,7.7
		c-1.1,5.4,2.3,10.7,7.7,11.8C40.6,508.9,56.1,509.1,70.4,506.2L70.4,506.2z"/>
</g>
</svg>
